<svg height="512" viewBox="0 0 58 59" width="512" xmlns="http://www.w3.org/2000/svg"><g id="Page-1" fill="none" fill-rule="evenodd"><g id="005---Dairy-Products" fill-rule="nonzero"><path id="Shape" d="m46 4.62v-3.62c0-.55228475-.4477153-1-1-1s-1 .44771525-1 1v3.62l-12 7.38v21.25l-18.82-5.88c-.8188505-.2552503-1.6974841-.2447487-2.51.03-8.85 2.98-10.67 9.6-10.67 9.6v20c.0032948 1.1032019.89679813 1.9967052 2 2h52c2.209139 0 4-1.790861 4-4v-43z" fill="#f0c419"/><path id="Shape" d="m44 37h-44s1.82-6.62 10.67-9.6c.8125159-.2747487 1.6911495-.2852503 2.51-.03l18.82 5.88z" fill="#f3d55b"/><g fill="#f29c1f"><circle id="Oval" cx="6" cy="43" r="2"/><circle id="Oval" cx="13.5" cy="50.5" r="2.5"/><circle id="Oval" cx="24" cy="42" r="2"/><circle id="Oval" cx="36" cy="52" r="3"/><circle id="Oval" cx="13" cy="31" r="1"/><circle id="Oval" cx="16" cy="42" r="1"/><circle id="Oval" cx="5" cy="53" r="1"/><circle id="Oval" cx="24" cy="54" r="1"/><circle id="Oval" cx="38" cy="42" r="1"/><circle id="Oval" cx="31" cy="47" r="1"/><circle id="Oval" cx="19" cy="33" r="1"/><circle id="Oval" cx="8" cy="33" r="1"/></g><path id="Shape" d="m58 44v11c0 2.209139-1.790861 4-4 4h-12c1.1032019-.0032948 1.9967052-.8967981 2-2v-13z" fill="#3b97d3"/><path id="Rectangle-path" d="m32 12h26v12h-26z" fill="#3b97d3"/><path id="Shape" d="m58 12h-26l12-7.38v-3.62c0-.55228475.4477153-1 1-1s1 .44771525 1 1v3.62z" fill="#2980ba"/><path id="Shape" d="m58 24v20h-14v-7l-12-3.75v-9.25z" fill="#ecf0f1"/><path id="Shape" d="m38 17h-2c-.5522847 0-1-.4477153-1-1s.4477153-1 1-1h2c.5522847 0 1 .4477153 1 1s-.4477153 1-1 1z" fill="#fff"/><path id="Shape" d="m53 17h-10c-.5522847 0-1-.4477153-1-1s.4477153-1 1-1h10c.5522847 0 1 .4477153 1 1s-.4477153 1-1 1z" fill="#fff"/></g></g></svg>