<?xml version="1.0" encoding="iso-8859-1"?>
<!-- Generator: Adobe Illustrator 19.0.0, SVG Export Plug-In . SVG Version: 6.00 Build 0)  -->
<svg xmlns="http://www.w3.org/2000/svg" xmlns:xlink="http://www.w3.org/1999/xlink" version="1.1" id="Layer_1" x="0px" y="0px" viewBox="0 0 503.026 503.026" style="enable-background:new 0 0 503.026 503.026;" xml:space="preserve" width="512" height="512">
<g>
	<g>
		<g>
			<path style="fill:#FFCA5E;" d="M153.302,416.917c21.789,21.789,52.101,29.854,80.204,24.205     c5.649-28.103-2.416-58.415-24.205-80.204s-52.101-29.854-80.204-24.205C123.448,364.816,131.513,395.128,153.302,416.917z"/>
			<path style="fill:#E8A328;" d="M153.302,416.917c21.79,21.79,52.1,29.86,80.21,24.21c-15.23-7.23-37.06-23.77-58.85-45.56     c-21.79-21.79-38.34-43.62-45.56-58.85C123.452,364.817,131.512,395.127,153.302,416.917z"/>
		</g>
		<g>
			<path style="fill:#FFCA5E;" d="M153.297,297.373c21.789,21.789,52.101,29.854,80.204,24.205     c5.649-28.103-2.416-58.415-24.205-80.204s-52.101-29.854-80.204-24.205C123.443,245.272,131.508,275.584,153.297,297.373z"/>
			<path style="fill:#E8A328;" d="M153.297,297.373c21.79,21.79,52.1,29.86,80.21,24.21c-15.23-7.23-37.06-23.77-58.85-45.56     c-21.79-21.79-38.34-43.62-45.56-58.85C123.447,245.273,131.507,275.583,153.297,297.373z"/>
		</g>
		<g>
			<path style="fill:#FFCA5E;" d="M162.489,186.179c19.547,19.547,46.74,26.782,71.951,21.715     c5.068-25.211-2.168-52.404-21.715-71.951s-46.74-26.782-71.951-21.715C135.707,139.439,142.942,166.632,162.489,186.179z"/>
			<path style="fill:#E8A328;" d="M162.489,186.179c19.548,19.548,46.739,26.788,71.957,21.719     c-13.663-6.486-33.247-21.324-52.795-40.872c-19.548-19.548-34.395-39.132-40.872-52.795     C135.71,139.439,142.941,166.631,162.489,186.179z"/>
		</g>
		<g>
			<path style="fill:#FFCA5E;" d="M349.718,416.917c-21.789,21.789-52.101,29.854-80.204,24.205     c-5.649-28.103,2.416-58.415,24.205-80.204c21.789-21.789,52.101-29.854,80.204-24.205     C379.572,364.816,371.507,395.128,349.718,416.917z"/>
			<path style="fill:#E8A328;" d="M349.718,416.917c-21.79,21.79-52.1,29.86-80.21,24.21c15.23-7.23,37.06-23.77,58.85-45.56     c21.79-21.79,38.34-43.62,45.56-58.85C379.568,364.817,371.508,395.127,349.718,416.917z"/>
		</g>
		<g>
			<path style="fill:#FFCA5E;" d="M349.723,297.373c-21.789,21.789-52.101,29.854-80.204,24.205     c-5.649-28.103,2.416-58.415,24.205-80.204c21.789-21.789,52.101-29.854,80.204-24.205     C379.577,245.272,371.512,275.584,349.723,297.373z"/>
			<path style="fill:#E8A328;" d="M349.723,297.373c-21.79,21.79-52.1,29.86-80.21,24.21c15.23-7.23,37.06-23.77,58.85-45.56     c21.79-21.79,38.34-43.62,45.56-58.85C379.573,245.273,371.513,275.583,349.723,297.373z"/>
		</g>
		<g>
			<path style="fill:#FFCA5E;" d="M340.531,186.179c-19.547,19.547-46.74,26.782-71.951,21.715     c-5.068-25.211,2.168-52.404,21.715-71.951c19.547-19.547,46.74-26.782,71.951-21.715     C367.313,139.439,360.078,166.632,340.531,186.179z"/>
			<path style="fill:#E8A328;" d="M340.531,186.179c-19.548,19.548-46.739,26.788-71.957,21.719     c13.663-6.486,33.247-21.324,52.795-40.872c19.548-19.548,34.395-39.132,40.872-52.795     C367.309,139.439,360.079,166.631,340.531,186.179z"/>
		</g>
		<polyline style="fill:#E8A328;" points="258.932,116.828 258.932,495.526 244.088,495.526 244.088,116.818   "/>
		<path style="fill:#FFCA5E;" d="M286.457,72.653c0,27.194-13.883,51.142-34.945,65.154c-21.062-14.012-34.945-37.96-34.945-65.154    S230.451,21.512,251.513,7.5C272.575,21.512,286.457,45.46,286.457,72.653z"/>
		<path style="fill:#E8A328;" d="M241.019,72.648c0,27.202,4.178,51.147,10.501,65.164c-21.07-14.017-34.952-37.962-34.952-65.164    c0-27.191,13.882-51.136,34.952-65.153C245.197,21.512,241.019,45.457,241.019,72.648z"/>
	</g>
	<path d="M381.423,308.956c0-4.142-3.358-7.5-7.5-7.5s-7.5,3.358-7.5,7.5v19.033c-28.735-3.023-57.354,6.974-78.007,27.626   c-5.603,5.603-10.418,11.795-14.405,18.415v-43.094c4.373,0.599,8.749,0.901,13.103,0.901c25.243,0,49.68-9.93,67.908-28.157   c22.63-22.63,32.459-54.825,26.389-86.258c0.003-0.083,0.013-0.165,0.013-0.249v-27.758c0-4.142-3.358-7.5-7.5-7.5   s-7.5,3.358-7.5,7.5v20.033c-28.735-3.024-57.354,6.974-78.007,27.626c-5.603,5.603-10.418,11.795-14.405,18.415v-39.906   c3.63,0.459,7.26,0.712,10.874,0.712c22.66,0,44.597-8.914,60.96-25.277c20.281-20.281,29.108-49.119,23.716-77.291v-32.9   c0-4.142-3.358-7.5-7.5-7.5s-7.5,3.358-7.5,7.5v24.916c-25.485-2.408-50.788,6.564-69.108,24.883   c-4.352,4.352-8.171,9.101-11.442,14.15V127.62c12.74-15.222,19.947-34.573,19.947-54.967c0-28.756-14.314-55.447-38.29-71.398   c-2.516-1.674-5.791-1.674-8.309,0c-12.826,8.532-23.136,20.359-29.815,34.2c-1.8,3.73-0.235,8.214,3.496,10.014   c3.731,1.8,8.213,0.235,10.014-3.495c4.771-9.888,11.791-18.532,20.46-25.246c17.272,13.365,27.443,33.913,27.443,55.925   c0,22.014-10.17,42.561-27.444,55.926c-17.275-13.365-27.445-33.913-27.445-55.926c0-4.142-3.358-7.5-7.5-7.5s-7.5,3.358-7.5,7.5   c0,20.392,7.205,39.74,19.942,54.961v17.156c-3.27-5.047-7.087-9.794-11.438-14.144c-18.319-18.32-43.622-27.29-69.108-24.883   V80.828c0-4.142-3.358-7.5-7.5-7.5s-7.5,3.358-7.5,7.5v32.9c-5.392,28.172,3.435,57.011,23.716,77.291   c16.364,16.365,38.298,25.278,60.959,25.277c3.611,0,7.241-0.253,10.87-0.712v39.899c-3.987-6.617-8.799-12.807-14.401-18.408   c-20.653-20.653-49.271-30.65-78.007-27.626v-20.033c0-4.142-3.358-7.5-7.5-7.5c-4.142,0-7.5,3.358-7.5,7.5v27.758   c0,0.084,0.01,0.165,0.013,0.249c-6.07,31.433,3.759,63.629,26.389,86.259c18.229,18.229,42.662,28.158,67.907,28.157   c4.351,0,8.727-0.303,13.099-0.901v43.087c-3.987-6.617-8.799-12.807-14.401-18.408c-20.653-20.652-49.271-30.651-78.007-27.626   v-19.033c0-4.142-3.358-7.5-7.5-7.5c-4.142,0-7.5,3.358-7.5,7.5v27.074c-6.043,31.412,3.788,63.577,26.402,86.191   c18.229,18.229,42.662,28.158,67.907,28.157c4.351,0,8.727-0.303,13.099-0.901v46.049c0,4.142,3.358,7.5,7.5,7.5h30   c4.142,0,7.5-3.358,7.5-7.5v-46.049c4.373,0.599,8.749,0.901,13.103,0.901c25.243,0,49.68-9.93,67.908-28.157   c2.929-2.929,2.929-7.677,0-10.606c-2.928-2.929-7.677-2.929-10.606,0c-18.04,18.041-43.29,26.447-68.397,23.005   c-3.443-25.107,4.964-50.356,23.004-68.397c18.041-18.041,43.29-26.447,68.393-23.005c2.118,15.604-0.345,31.718-7.087,45.896   c-1.779,3.74-0.189,8.215,3.552,9.994c3.741,1.779,8.215,0.188,9.994-3.552c8.733-18.362,11.395-39.458,7.549-59.501V308.956z    M299.022,247.681c18.041-18.041,43.293-26.448,68.397-23.005c3.443,25.107-4.964,50.357-23.004,68.397   c-18.041,18.041-43.29,26.448-68.397,23.005C272.574,290.971,280.982,265.722,299.022,247.681z M296.059,141.233   c15.704-15.704,37.621-23.103,59.478-20.299c2.803,21.857-4.595,43.774-20.299,59.478c-15.704,15.704-37.62,23.103-59.478,20.299   C272.957,178.854,280.355,156.937,296.059,141.233z M227.265,200.711c-21.852,2.801-43.774-4.596-59.478-20.299   c-15.704-15.704-23.102-37.621-20.299-59.478c21.853-2.8,43.774,4.596,59.478,20.3C222.67,156.937,230.068,178.854,227.265,200.711   z M227.008,316.078c-3.699,0.507-7.4,0.757-11.082,0.757c-21.307-0.001-41.933-8.38-57.314-23.762   c-18.041-18.041-26.448-43.29-23.004-68.397c25.103-3.443,50.355,4.964,68.396,23.005   C222.044,265.722,230.451,290.971,227.008,316.078z M227.008,434.619c-3.699,0.507-7.4,0.757-11.082,0.757   c-21.307-0.001-41.933-8.38-57.314-23.762c-18.041-18.041-26.448-43.29-23.004-68.397c25.103-3.444,50.355,4.964,68.396,23.005   C222.044,384.262,230.451,409.512,227.008,434.619z M244.01,488.026v-346.33c1.096,0.806,2.208,1.597,3.348,2.356   c1.258,0.837,2.707,1.256,4.154,1.256c1.448,0,2.896-0.418,4.154-1.256c1.139-0.758,2.249-1.547,3.343-2.352v346.327H244.01z"/>
</g>















</svg>
