<svg id="Capa_1" enable-background="new 0 0 512 512" height="512" viewBox="0 0 512 512" width="512" xmlns="http://www.w3.org/2000/svg"><g><g><g><path d="m422.414 270.368c4.916 27.354 3.44 55.984-5.538 83.91-.171.533-.366 1.052-.542 1.581 2.115-.839 4.231-1.708 6.345-2.631 42.928-18.742 73.592-49.673 81.819-78.708-20.33-10.362-50.178-12.046-82.084-4.152z" fill="#09a76d"/><path d="m424.996 309.231c-.687 15.016-3.324 30.132-8.12 45.048-.171.533-.366 1.052-.542 1.582 2.115-.839 4.231-1.708 6.345-2.631 42.928-18.742 73.592-49.673 81.82-78.708z" fill="#02905d"/></g></g><g><g><path d="m110.852 254.41c0-22.332 3.613-43.865 10.293-64.119-3.205-3.72-6.588-7.385-10.169-10.966-33.121-33.121-73.112-50.375-103.147-47.434-2.941 30.035 14.312 70.026 47.434 103.148 17.73 17.73 37.427 30.907 56.513 38.879-.611-6.425-.924-12.932-.924-19.508z" fill="#09a76d"/><path d="m110.852 254.41c0-6.281.296-12.496.854-18.641l-103.877-103.877c-2.941 30.035 14.313 70.026 47.434 103.148 17.733 17.733 37.435 30.914 56.524 38.886-.613-6.429-.935-12.937-.935-19.516z" fill="#02905d"/></g></g><g><g><path d="m315.795 209.377c12.078-8.312 25.179-15.211 39.023-20.533 2.892-2.574 5.748-5.254 8.552-8.058 33.121-33.121 50.375-73.113 47.434-103.148-30.035-2.941-70.026 14.312-103.147 47.434-6.655 6.654-12.656 13.589-17.995 20.661 12.076 19.471 21.008 40.891 26.133 63.644z" fill="#09a76d"/><path d="m315.795 209.377c12.078-8.312 25.179-15.211 39.024-20.533 2.892-2.574 5.748-5.254 8.552-8.057 33.121-33.121 50.375-73.113 47.434-103.148l-103.551 103.551c3.494 9.126 6.367 18.534 8.541 28.187z" fill="#02905d"/></g></g><path d="m255.357 280.957c13.454-29.456 34.576-53.78 60.438-71.58-11.591-51.452-42.634-96.104-85.514-126.751-8.535-6.1-20.382-6.1-28.917 0-54.984 39.297-90.512 101.62-90.512 171.784 0 8.989.587 17.847 1.72 26.547z" fill="#a44f3e"/><path d="m239.661 350.922c.196-16.948 2.885-34.075 8.309-50.946 2.108-6.556 4.589-12.894 7.386-19.02h-166.455c-2.821 0-5.094 2.335-5.006 5.155 2.454 78.275 60.581 140.897 131.927 140.897 19.22 0 37.477-4.551 53.948-12.722-18.145-14.613-30.42-36.444-30.109-63.364z" fill="#ffbd86"/><g><path d="m125.148 286.112c-.088-2.82 2.185-5.155 5.006-5.155h-41.253c-2.821 0-5.094 2.335-5.006 5.155 2.454 78.275 60.581 140.897 131.927 140.897 7.018 0 13.905-.615 20.627-1.782-61.613-10.698-109.088-68.54-111.301-139.115z" fill="#f6a96c"/></g><g><g><path d="m247.971 299.977c-5.424 16.87-8.113 33.998-8.309 50.946-.922 79.755 108.55 114.949 154.279 49.599 9.717-13.887 17.513-29.373 22.936-46.243 18.148-56.45 5.685-115.78-28.388-161.619-5.289-7.115-14.821-10.179-23.265-7.479-54.402 17.394-99.105 58.346-117.253 114.796z" fill="#883f2e"/></g><g><path d="m277.401 309.438c-5.424 16.87-9.003 33.712-10.858 50.126-8.729 77.245 62.594 100.175 100.515 32.315 8.058-14.42 14.964-30.192 20.388-47.063 18.148-56.45 15.646-112.578-3.011-153.46-2.896-6.346-9.106-8.342-15.157-4.873-38.986 22.351-73.729 66.505-91.877 122.955z" fill="#a44f3e"/></g><g><path d="m313.51 321.047c-5.424 16.87-10.094 33.361-13.985 49.121-18.308 74.165 6.21 82.047 34.552 11.108 6.023-15.075 11.837-31.198 17.261-48.068 18.148-56.45 27.867-108.649 28.124-143.451.04-5.402-2.095-6.088-5.21-1.675-20.073 28.432-42.594 76.515-60.742 132.965z" fill="#883f2e"/></g></g><g><path d="m507.905 267.838c-20.857-10.631-49.426-12.683-79.668-6.492-5.844-26.052-17.418-51.217-33.729-73.161-4.285-5.765-10.662-9.555-17.54-10.9 4.125-4.629 8.02-9.408 11.631-14.299 2.461-3.333 1.754-8.028-1.578-10.489-3.333-2.461-8.028-1.755-10.488 1.579-5.511 7.463-11.724 14.666-18.466 21.408-2.38 2.38-4.81 4.679-7.278 6.9-10.536 4.153-20.678 9.189-30.265 15.026-1.343-4.818-2.878-9.589-4.565-14.319l86.688-86.689c-1.446 9.153-4.481 18.913-9.038 28.922-1.716 3.77-.052 8.217 3.719 9.934 3.772 1.72 8.218.052 9.934-3.718 8.807-19.344 12.613-38.236 11.007-54.633-.349-3.564-3.169-6.384-6.732-6.733-33.481-3.278-75.312 15.726-109.183 49.595-4.284 4.285-8.311 8.704-12.103 13.211-14.914-21.63-33.822-40.886-55.608-56.456-11.081-7.92-26.559-7.92-37.64 0-28.43 20.319-51.984 46.898-68.117 76.864-4.001 7.433-7.52 15.01-10.587 22.712-.672-.693-1.333-1.391-2.019-2.077-33.87-33.87-75.703-52.875-109.183-49.595-3.563.349-6.384 3.169-6.732 6.733-3.279 33.476 15.725 75.312 49.594 109.182 13.603 13.603 28.491 24.791 43.605 33.115h-4.663c-3.366 0-6.642 1.387-8.985 3.806-2.341 2.416-3.623 5.727-3.517 9.083 1.246 39.739 16.213 76.917 42.144 104.686 26.182 28.036 60.729 43.476 97.28 43.476 18.441 0 36.367-3.945 52.971-11.443 8.276 6.006 17.743 10.844 28.217 14.211 10.292 3.309 20.624 4.914 30.681 4.914 28.889 0 55.51-13.24 72.394-37.368 9.341-13.35 16.808-27.896 22.252-43.298 1.115-.463 2.23-.936 3.343-1.422 43.897-19.165 76.864-51.175 86.034-83.537.976-3.446-.619-7.101-3.81-8.728zm-23.867 7.432-51.365 22.425c-.151-7.155-.735-14.333-1.745-21.524 19.227-3.941 37.682-4.294 53.11-.901zm-171.078-144.894c24.302-24.301 53.618-40.531 79.069-44.568l-82.136 82.136c-2.187-4.907-4.553-9.764-7.134-14.556-1.286-2.388-2.635-4.746-4.014-7.089 4.358-5.474 9.103-10.811 14.215-15.923zm-23.408 30.122c7.903 14.679 13.829 29.951 17.79 45.696-6.113 4.449-11.933 9.243-17.42 14.354-3.953-37.489-14.42-72.475-30.463-102.145 11.803 12.84 21.968 27.004 30.093 42.095zm-73.73-61.711c6.563 25.875 11.456 59.193 13.982 95.699.286 4.132 3.867 7.25 8 6.964s7.251-3.868 6.965-8c-2.327-33.621-6.648-64.721-12.438-90.134 11.64 16.19 21.439 35.258 28.753 56.109 8.332 23.753 13.353 49.054 15.006 75.436-10.207 11.788-18.719 24.692-25.506 38.595h-3.977c.133-6.321.225-12.666.225-19.047 0-8.542-.12-17.172-.357-25.651-.114-4.069-3.448-7.291-7.493-7.291-.07 0-.143.001-.214.003-4.141.116-7.403 3.566-7.287 7.707.233 8.341.352 16.83.352 25.232 0 6.383-.094 12.727-.229 19.047h-31.56c-.135-6.319-.229-12.663-.229-19.047-.001-59.069 5.904-115.789 16.007-155.622zm-16.545 4.582c-9.271 40.428-14.463 93.877-14.463 151.041 0 6.382.092 12.726.225 19.047h-29.491c-.398-6.314-.614-12.667-.614-19.047 0-33.462 5.258-65.42 15.628-94.985 7.305-20.828 17.091-39.877 28.715-56.056zm-57.185 57.129c8.125-15.092 18.292-29.257 30.094-42.097-20.791 38.45-32.253 85.816-32.253 136.008 0 6.377.207 12.729.587 19.047h-21.236c-.611-6.315-.932-12.668-.932-19.047 0-33.054 7.988-64.651 23.74-93.911zm-36.419 24.13c2.421 2.421 4.756 4.894 7.012 7.406-2.79 9.052-4.958 18.261-6.496 27.611l-79.584-79.584c25.452 4.039 54.768 20.268 79.068 44.567zm-89.676-33.962 87.951 87.952c-.381 5.229-.596 10.49-.596 15.792 0 2.426.057 4.848.142 7.266-14.842-7.787-29.635-18.648-42.928-31.941-24.301-24.301-40.532-53.616-44.569-79.069zm199.826 268.842c-32.349 0-63.004-13.749-86.317-38.714-22.887-24.508-36.33-57.212-38.012-92.337h152.59c-1.156 3.036-2.25 6.105-3.253 9.224-5.544 17.244-8.461 35.127-8.668 53.154-.271 23.487 8.531 44.952 24.016 61.222-12.84 4.891-26.439 7.451-40.356 7.451zm43.269-60.786c-1.454 12.863-.783 24.831 1.739 35.423-8.923-12.306-13.854-27.163-13.67-43.136.191-16.525 2.865-32.923 7.949-48.737 8.491-26.409 22.988-49.602 43.091-68.934 8.161-7.848 17.185-14.911 26.862-21.092-23.738 24.988-42.854 57.736-54.801 94.897-5.466 17-9.225 34.354-11.17 51.579zm33.152 9.649c-3.583 14.514-6.599 30.733-6.496 43.866-9.754-11.473-14.221-29.982-11.752-51.831 1.835-16.24 5.383-32.616 10.545-48.672 13.983-43.494 39.267-81.542 69.631-105.837-16.957 29.718-33.82 69.362-47.802 112.855-5.368 16.695-10.121 33.39-14.126 49.619zm9.619 53.815c-1.558-4.519-2.76-19.014 4.943-50.221 3.923-15.895 8.581-32.254 13.843-48.623 14.568-45.313 32.899-87.497 50.53-116.764-2.729 34.061-12.415 79.024-26.981 124.335-5.261 16.363-11.01 32.371-17.086 47.581-11.926 29.849-21.35 40.927-25.249 43.692zm85.933-25.964c-9.156 13.084-21.818 22.283-36.236 27.084 8.218-7.138 15.733-16.473 22.045-27.769 5.274-9.438 10.051-19.43 14.198-29.698 1.552-3.84-.305-8.211-4.146-9.763-3.841-1.553-8.211.306-9.763 4.146-3.913 9.687-8.416 19.107-13.384 27.999-10.725 19.192-25.142 31.629-39.754 35.269 7.738-10.612 14.738-25.55 20.284-39.431 6.204-15.529 12.07-31.865 17.436-48.555 13.994-43.526 23.397-85.602 26.928-119.649 9.406 33.232 9.235 72.841-.875 112.047-1.034 4.011 1.379 8.101 5.39 9.135 4.017 1.031 8.102-1.379 9.136-5.39 8.259-32.029 10.245-64.436 6.15-93.963 4.336 10.778 7.601 21.906 9.684 33.17 5.07 27.424 3.336 54.72-5.153 81.13-5.083 15.811-12.466 30.696-21.94 44.238zm40.115-53.7c2.209-9.35 3.661-18.784 4.344-28.277l57.785-25.228c-11.894 20.252-34.392 39.791-62.129 53.505z"/><circle cx="125.506" cy="343.468" r="7.5"/><circle cx="150.506" cy="372.468" r="7.5"/><circle cx="181.506" cy="388.468" r="7.5"/><circle cx="127.506" cy="313.468" r="7.5"/><circle cx="157.506" cy="344.468" r="7.5"/></g></g></svg>