<svg id="Line-Expand" enable-background="new 0 0 64 64" height="512" viewBox="0 0 64 64" width="512" xmlns="http://www.w3.org/2000/svg"><path d="m59.091 50h-56.091c-.552 0-1 .448-1 1v4c0 3.86 3.14 7 7 7h30c3.86 0 7-3.14 7-7v-3h3.13c.416 1.756 1.891 3.097 3.768 3.268l5.93.539c.087.008.175.012.262.012.722 0 1.425-.27 1.962-.76.602-.551.948-1.334.948-2.15 0-1.604-1.305-2.909-2.909-2.909zm-15.091 5c0 2.757-2.243 5-5 5h-30c-2.757 0-5-2.243-5-5v-3h40zm15.704-1.419c-.19.174-.435.26-.695.233l-5.93-.539c-.829-.075-1.514-.575-1.852-1.275h7.864c.501 0 .909.408.909.909 0 .259-.105.498-.296.672z"/><path d="m11 16c.792 0 1.471-.12 2.049-.309l-.998 2.992c-.102.305-.05.64.138.901.188.262.49.416.811.416h10c.321 0 .623-.154.811-.416.188-.261.239-.596.138-.901l-.998-2.992c.578.189 1.257.309 2.049.309 2.405 0 5-2.294 5-6 0-3.853-3.755-8-12-8s-12 4.147-12 8c0 3.706 2.595 6 5 6zm7-12c7.91 0 10 3.925 10 6 0 2.471-1.557 4-3 4-2.298 0-3.08-1.401-3.105-1.447-.235-.47-.792-.678-1.277-.477s-.732.742-.566 1.24l1.561 4.684h-7.226l1.562-4.684c.164-.492-.08-1.021-.556-1.227-.476-.207-1.035-.006-1.281.45-.032.06-.814 1.461-3.112 1.461-1.443 0-3-1.529-3-4 0-2.075 2.09-6 10-6z"/><path d="m32.586 30.099-4.243 4.244c-1.511 1.511-2.343 3.52-2.343 5.657s.832 4.146 2.343 5.657 3.52 2.343 5.657 2.343 4.146-.832 5.657-2.343l9.899-9.899c3.899-3.899 3.899-10.243 0-14.142s-10.244-3.898-14.142 0c-2.235 2.234-3.271 5.371-2.828 8.483zm2.054.149c-.52-2.629.298-5.328 2.188-7.218 3.12-3.119 8.194-3.119 11.314 0 3.119 3.119 3.119 8.195 0 11.314l-9.899 9.899c-1.134 1.133-2.64 1.757-4.243 1.757s-3.109-.624-4.243-1.757-1.757-2.64-1.757-4.243.624-3.109 1.757-4.243l4.608-4.609c.237-.235.34-.573.275-.9z"/><path d="m43.192 29.565c.801 0 1.555-.312 2.121-.878.567-.567.879-1.32.879-2.122s-.312-1.555-.878-2.121 0 0 0 0c-1.133-1.133-3.109-1.133-4.242 0-.567.567-.879 1.32-.879 2.122s.312 1.555.878 2.121c.567.566 1.32.878 2.121.878zm-.706-3.707c.188-.189.439-.293.707-.293s.518.104.707.293c.189.188.293.439.293.707s-.104.518-.293.707c-.377.378-1.036.378-1.414 0-.189-.188-.293-.439-.293-.707s.103-.518.293-.707z"/><path d="m46 4v-2c-5.514 0-10 4.486-10 10h2c0-4.411 3.589-8 8-8z"/><path d="m7 23h2c0-3.309-2.691-6-6-6v2c2.206 0 4 1.794 4 4z"/><path d="m26 26h2c0-2.757 2.243-5 5-5v-2c-3.86 0-7 3.14-7 7z"/><path d="m48 2h2v2h-2z"/><path d="m42 46h2v2h-2z"/><path d="m3.464 43.878c.944.945 2.2 1.465 3.536 1.465s2.591-.52 3.536-1.465c.203-.203.388-.431.562-.689.973-.108 1.872-.509 2.624-1.136l3.82 4.587c.18.216.442.346.723.359.015.001.03.001.045.001.265 0 .519-.105.707-.293l5.66-5.66c.199-.199.305-.472.292-.752-.013-.281-.143-.543-.358-.723l-4.584-3.825c.625-.752 1.026-1.65 1.132-2.62.259-.173.487-.359.69-.562 1.95-1.949 1.95-5.122 0-7.071-.944-.945-2.2-1.465-3.536-1.465-1.024 0-2.002.306-2.828.875-.826-.569-1.804-.875-2.829-.875-1.335 0-2.591.52-3.535 1.464-.202.202-.388.43-.562.69-1.124.124-2.164.621-2.974 1.432-.811.811-1.308 1.851-1.432 2.974-.26.173-.488.359-.69.562-1.729 1.728-1.924 4.417-.588 6.364-1.335 1.946-1.139 4.635.589 6.363zm14.913.641-3.382-4.062c.443-.897.617-1.918.475-2.927l.03-.03c1.013.143 2.036-.033 2.934-.478l4.056 3.385zm-13.499-7.711c-1.169-1.17-1.169-3.073 0-4.243.184-.184.412-.346.717-.509.327-.175.531-.517.528-.888-.004-.809.307-1.568.877-2.139.566-.565 1.318-.876 2.122-.876h.023c.369 0 .708-.203.882-.528.163-.305.325-.532.509-.716 1.134-1.134 3.109-1.134 4.243 0 .375.375 1.039.375 1.414 0 1.134-1.134 3.109-1.134 4.243 0 1.169 1.17 1.169 3.073 0 4.243-.185.185-.412.346-.715.508-.328.175-.532.517-.53.889.005.81-.306 1.569-.876 2.139-.756.755-1.839 1.038-2.888.762-.346-.091-.711.008-.962.259l-.785.784c-.252.252-.351.619-.26.963.278 1.053-.007 2.132-.762 2.888-.566.565-1.318.876-2.122.876-.008 0-.016-.001-.023 0-.369 0-.708.203-.882.529-.162.303-.323.531-.508.715-1.17 1.17-3.073 1.17-4.243 0-1.169-1.17-1.169-3.073 0-4.243.389-.39.389-1.023-.002-1.413z"/></svg>