<svg id="Capa_1" enable-background="new 0 0 512 512" height="512" viewBox="0 0 512 512" width="512" xmlns="http://www.w3.org/2000/svg"><g><g><g><path d="m391.849 7.599s-30.947 18.26-53.509 39.633c-31.688 30.039-47.746 60.305-47.729 89.957.013 22.863 7.543 44.476 21.443 62.149-13.88 17.69-21.384 39.311-21.372 62.173.013 22.863 7.542 44.475 21.443 62.149-13.878 17.688-21.385 39.312-21.372 62.175.02 35.43 16.795 68.153 48.511 94.631 23.148 19.326 52.605 31.141 52.605 31.141s.019-.007.023-.009l54.53-255.508-54.573-248.491c-.005-.004 0 0 0 0z" fill="#108476"/></g><path d="m391.849 7.599.043 504.001c.484-.187 33.506-12.973 59.759-37.576 27.005-25.307 41.209-55.668 41.19-88.304-.013-22.861-7.544-44.476-21.443-62.149 13.879-17.689 21.385-39.312 21.372-62.174-.013-22.861-7.545-44.476-21.443-62.149 13.879-17.689 21.385-39.312 21.372-62.174-.015-25.882-13.171-52.904-39.103-80.319-21.851-23.1-61.101-48.732-61.747-49.156z" fill="#0b6269"/></g><g><g><path d="m391.849 7.599s-36.176-7.768-68.07-7.596c-44.809.257-78.072 11.652-98.868 33.869-16.034 17.129-25.562 38.598-27.556 61.587-22.808 3.506-43.6 14.431-59.634 31.56s-25.562 38.597-27.556 61.586c-22.805 3.506-43.601 14.432-59.635 31.561-24.848 26.545-35.25 62.821-30.081 104.905 3.771 30.716 17.539 60.235 17.539 60.235s.02.008.023.009l220.136-153.065 133.702-224.651c-.001-.007 0 0 0 0z" fill="#22d683"/></g><path d="m391.849 7.599-353.836 377.715c.494.2 34.194 13.798 71.117 13.798 37.981 0 69.923-12.768 92.812-37.22 16.033-17.128 25.562-38.599 27.556-61.586 22.806-3.506 43.601-14.432 59.635-31.56 16.033-17.128 25.562-38.6 27.556-61.586 22.806-3.506 43.601-14.432 59.634-31.56 18.151-19.391 27.263-48.859 27.082-87.585-.154-32.633-11.37-79.646-11.556-80.416z" fill="#19a68f"/></g><g><g fill="#8df730"><path d="m126.121 245.347c-25.37 0-45.936 20.566-45.936 45.936 0 13.218 5.591 25.124 14.528 33.505l50.144-12.703 12.65-54.328c-8.214-7.692-19.246-12.41-31.386-12.41z"/><path d="m213.402 152.122c-25.37 0-45.936 20.566-45.936 45.936 0 13.231 5.602 25.148 14.554 33.53l53.087-13.632 9.707-53.4c-8.215-7.706-19.258-12.434-31.412-12.434z"/><path d="m300.658 58.893c-25.37 0-45.936 20.566-45.936 45.936 0 13.252 5.619 25.186 14.596 33.57l38.638-14.571 24.156-52.461c-8.22-7.73-19.28-12.474-31.454-12.474z"/></g><path d="m172.057 291.283c0-13.23-5.6-25.145-14.55-33.527l-62.794 67.032c8.215 7.704 19.257 12.431 31.408 12.431 25.369 0 45.936-20.566 45.936-45.936z" fill="#5be167"/><path d="m259.339 198.058c0-13.217-5.59-25.121-14.524-33.502l-62.794 67.032c8.213 7.69 19.244 12.406 31.382 12.406 25.369 0 45.936-20.566 45.936-45.936z" fill="#5be167"/><path d="m346.594 104.829c0-13.196-5.572-25.083-14.482-33.462l-62.794 67.032c8.208 7.666 19.223 12.366 31.34 12.366 25.37 0 45.936-20.566 45.936-45.936z" fill="#5be167"/></g><g><path d="m171.622 432.277c-18.666 17.182-19.869 46.242-2.688 64.908 8.952 9.725 21.531 14.699 33.782 14.813l27.888-43.307-27.888-48.54c-11.252-.096-22.162 3.905-31.094 12.126z" fill="#8df730"/><path d="m236.53 434.965c-8.96-9.734-21.552-14.708-33.813-14.813v91.846c11.262.105 22.185-3.896 31.126-12.125 18.665-17.182 19.868-46.242 2.687-64.908z" fill="#5be167"/></g></g></svg>