<?xml version="1.0" encoding="iso-8859-1"?>
<!-- Generator: Adobe Illustrator 19.0.0, SVG Export Plug-In . SVG Version: 6.00 Build 0)  -->
<svg version="1.1" id="Capa_1" xmlns="http://www.w3.org/2000/svg" xmlns:xlink="http://www.w3.org/1999/xlink" x="0px" y="0px"
	 viewBox="0 0 512 512" style="enable-background:new 0 0 512 512;" xml:space="preserve">
<g>
	<path style="fill:#EBEBEB;" d="M315.733,332.8c-28.501,0-52.053,29.952-55.125,68.267h17.152c3.661,0.196,6.784,2.705,7.765,6.229
		L300.8,460.8h29.867l15.275-53.504c0.981-3.524,4.105-6.033,7.765-6.229h17.152C367.787,362.752,344.235,332.8,315.733,332.8z"/>
	<path style="fill:#EBEBEB;" d="M196.267,332.8c-28.501,0-52.053,29.952-55.125,68.267h17.152c3.661,0.196,6.784,2.705,7.765,6.229
		l15.275,53.504H211.2l15.275-53.504c0.981-3.524,4.105-6.033,7.765-6.229h17.152C248.32,362.752,224.768,332.8,196.267,332.8z"/>
</g>
<path style="fill:#FFE491;" d="M448,460.8h-19.2l-15.275-53.504c-1.033-3.678-4.378-6.221-8.192-6.229h-51.627
	c-3.661,0.196-6.784,2.705-7.765,6.229L330.667,460.8H300.8l-15.275-53.504c-0.981-3.524-4.105-6.033-7.765-6.229h-43.52
	c-3.661,0.196-6.784,2.705-7.765,6.229L211.2,460.8h-29.867l-15.275-53.504c-0.981-3.524-4.105-6.033-7.765-6.229H115.2
	c-3.814,0.009-7.159,2.551-8.192,6.229L91.733,460.8h-19.2c-4.71,0-8.533,3.823-8.533,8.533v34.133c0,4.71,3.823,8.533,8.533,8.533
	H448c4.71,0,8.533-3.823,8.533-8.533v-34.133C456.533,464.623,452.71,460.8,448,460.8z"/>
<path style="fill:#EBEBEB;" d="M157.867,307.2h-128c-14.14,0-25.6-11.46-25.6-25.6V110.933c0-2.261,0.896-4.437,2.5-6.033l48.7-48.7
	V42.667c0-4.71,3.823-8.533,8.533-8.533h76.8c4.71,0,8.533,3.823,8.533,8.533v13.534l31.633,31.633c1.604,1.596,2.5,3.772,2.5,6.033
	V281.6C183.467,295.74,172.006,307.2,157.867,307.2z"/>
<path style="fill:#62BEFF;" d="M140.8,51.2H64c-4.71,0-8.533-3.823-8.533-8.533V8.533C55.467,3.823,59.29,0,64,0h76.8
	c4.71,0,8.533,3.823,8.533,8.533v34.133C149.333,47.377,145.51,51.2,140.8,51.2z"/>
<path style="fill:#FFFFFF;" d="M140.8,170.667h-17.067c-4.71,0-8.533-3.823-8.533-8.533v-76.8c0-4.71,3.823-8.533,8.533-8.533
	c2.261,0,4.429,0.896,6.033,2.5l17.067,17.067c1.604,1.596,2.5,3.772,2.5,6.033v59.733
	C149.333,166.844,145.51,170.667,140.8,170.667z"/>
<path style="fill:#002874;" d="M132.267,247.467H115.2v-30.601L104.166,227.9c-3.337,3.328-8.738,3.328-12.066,0l-11.034-11.034
	v30.601H64v-51.2c0-4.71,3.823-8.533,8.533-8.533c2.261,0,4.429,0.896,6.033,2.5l19.567,19.567l19.567-19.567
	c3.337-3.328,8.738-3.328,12.066,0c1.604,1.604,2.5,3.772,2.5,6.033V247.467z"/>
<ellipse style="fill:#79DCA0;" cx="413.867" cy="132.267" rx="93.867" ry="123.733"/>
<polygon style="fill:#37A685;" points="460.331,163.567 422.4,188.86 422.4,106.965 469.803,75.366 460.331,61.167 422.4,86.46 
	422.4,34.133 405.333,34.133 405.333,143.915 368.137,112.913 357.197,126.02 405.333,166.135 405.333,307.2 422.4,307.2 
	422.4,209.365 469.803,177.766 "/>
<g>
	<path style="fill:#EBEBEB;" d="M285.696,305.323c0.529,2.551-0.094,5.205-1.707,7.253c-1.647,1.98-4.079,3.14-6.656,3.157
		c0.017-0.572,0.068-1.143,0.171-1.707l4.779-23.979L285.696,305.323z"/>
	<path style="fill:#EBEBEB;" d="M321.109,277.76c-11.58,5.12-24.772,5.12-36.352,0l-2.475,12.288l3.413,15.275
		c0.529,2.551-0.094,5.205-1.707,7.253c-1.647,1.98-4.079,3.14-6.656,3.157c0.06,4.685,3.849,8.474,8.533,8.533H320
		c2.56,0.017,4.983-1.143,6.571-3.157c1.638-1.971,2.295-4.574,1.792-7.083L321.109,277.76z"/>
</g>
<path style="fill:#D3D3D3;" d="M302.933,230.4c-11.989-0.623-23.501,4.745-30.72,14.336c-2.227,3.337-3.413,7.253-3.413,11.264
	c0.196,7.339,3.908,14.14,9.984,18.261c1.877,1.348,3.874,2.526,5.973,3.499c11.58,5.12,24.772,5.12,36.352,0
	c9.156-3.456,15.411-11.989,15.957-21.76C337.067,241.664,322.048,230.4,302.933,230.4z"/>
<path style="fill:#EBEBEB;" d="M278.784,274.261c-6.076-4.122-9.788-10.923-9.984-18.261c0-4.011,1.186-7.927,3.413-11.264
	l-1.963-8.789c-7.424,2.014-15.087,3.012-22.784,2.987c-7.433,0.034-14.831-0.913-22.016-2.816l-7.765,70.144
	c-0.299,2.406,0.452,4.83,2.048,6.656c1.647,1.792,3.968,2.807,6.4,2.816h51.2c0.017-0.572,0.068-1.143,0.171-1.707l4.779-23.979
	L278.784,274.261z"/>
<path style="fill:#D3D3D3;" d="M200.533,213.333c0,11.349,10.752,19.029,24.917,22.784c7.185,1.903,14.583,2.85,22.016,2.816
	c7.697,0.026,15.36-0.973,22.784-2.987c13.824-3.84,24.149-11.52,24.149-22.613C294.4,179.712,200.533,179.712,200.533,213.333z"/>
<g>
</g>
<g>
</g>
<g>
</g>
<g>
</g>
<g>
</g>
<g>
</g>
<g>
</g>
<g>
</g>
<g>
</g>
<g>
</g>
<g>
</g>
<g>
</g>
<g>
</g>
<g>
</g>
<g>
</g>
</svg>
